<?xml version="1.0" encoding="UTF-8"?>

<svg version="1.2" baseProfile="tiny" width="152.4mm" height="152.4mm" viewBox="0 0 15240 15240" preserveAspectRatio="xMidYMid" fill-rule="evenodd" clip-path="url(#presentation_clip_path)" stroke-width="28.222" stroke-linejoin="round" xmlns="http://www.w3.org/2000/svg" xmlns:ooo="http://xml.openoffice.org/svg/export" xmlns:xlink="http://www.w3.org/1999/xlink" xml:space="preserve">
 <defs class="ClipPathGroup">
  <clipPath id="presentation_clip_path" clipPathUnits="userSpaceOnUse">
   <rect x="0" y="0" width="15240" height="15240"/>
  </clipPath>
 </defs>
 <defs class="TextShapeIndex">
  <g ooo:slide="id1" ooo:id-list="id3 id4 id5 id6 id7 id8 id9 id10 id11 id12 id13 id14 id15 id16 id17 id18"/>
 </defs>
 <defs class="EmbeddedBulletChars">
  <g id="bullet-char-template(57356)" transform="scale(0.00048828125,-0.00048828125)">
   <path d="M 580,1141 L 1163,571 580,0 -4,571 580,1141 Z"/>
  </g>
  <g id="bullet-char-template(57354)" transform="scale(0.00048828125,-0.00048828125)">
   <path d="M 8,1128 L 1137,1128 1137,0 8,0 8,1128 Z"/>
  </g>
  <g id="bullet-char-template(10146)" transform="scale(0.00048828125,-0.00048828125)">
   <path d="M 174,0 L 602,739 174,1481 1456,739 174,0 Z M 1358,739 L 309,1346 659,739 1358,739 Z"/>
  </g>
  <g id="bullet-char-template(10132)" transform="scale(0.00048828125,-0.00048828125)">
   <path d="M 2015,739 L 1276,0 717,0 1260,543 174,543 174,936 1260,936 717,1481 1274,1481 2015,739 Z"/>
  </g>
  <g id="bullet-char-template(10007)" transform="scale(0.00048828125,-0.00048828125)">
   <path d="M 0,-2 C -7,14 -16,27 -25,37 L 356,567 C 262,823 215,952 215,954 215,979 228,992 255,992 264,992 276,990 289,987 310,991 331,999 354,1012 L 381,999 492,748 772,1049 836,1024 860,1049 C 881,1039 901,1025 922,1006 886,937 835,863 770,784 769,783 710,716 594,584 L 774,223 C 774,196 753,168 711,139 L 727,119 C 717,90 699,76 672,76 641,76 570,178 457,381 L 164,-76 C 142,-110 111,-127 72,-127 30,-127 9,-110 8,-76 1,-67 -2,-52 -2,-32 -2,-23 -1,-13 0,-2 Z"/>
  </g>
  <g id="bullet-char-template(10004)" transform="scale(0.00048828125,-0.00048828125)">
   <path d="M 285,-33 C 182,-33 111,30 74,156 52,228 41,333 41,471 41,549 55,616 82,672 116,743 169,778 240,778 293,778 328,747 346,684 L 369,508 C 377,444 397,411 428,410 L 1163,1116 C 1174,1127 1196,1133 1229,1133 1271,1133 1292,1118 1292,1087 L 1292,965 C 1292,929 1282,901 1262,881 L 442,47 C 390,-6 338,-33 285,-33 Z"/>
  </g>
  <g id="bullet-char-template(9679)" transform="scale(0.00048828125,-0.00048828125)">
   <path d="M 813,0 C 632,0 489,54 383,161 276,268 223,411 223,592 223,773 276,916 383,1023 489,1130 632,1184 813,1184 992,1184 1136,1130 1245,1023 1353,916 1407,772 1407,592 1407,412 1353,268 1245,161 1136,54 992,0 813,0 Z"/>
  </g>
  <g id="bullet-char-template(8226)" transform="scale(0.00048828125,-0.00048828125)">
   <path d="M 346,457 C 273,457 209,483 155,535 101,586 74,649 74,723 74,796 101,859 155,911 209,963 273,989 346,989 419,989 480,963 531,910 582,859 608,796 608,723 608,648 583,586 532,535 482,483 420,457 346,457 Z"/>
  </g>
  <g id="bullet-char-template(8211)" transform="scale(0.00048828125,-0.00048828125)">
   <path d="M -4,459 L 1135,459 1135,606 -4,606 -4,459 Z"/>
  </g>
 </defs>
 <defs class="TextEmbeddedBitmaps"/>
 <g>
  <g id="id2" class="Master_Slide">
   <g id="bg-id2" class="Background"/>
   <g id="bo-id2" class="BackgroundObjects"/>
  </g>
 </g>
 <g class="SlideGroup">
  <g>
   <g id="id1" class="Slide" clip-path="url(#presentation_clip_path)">
    <g class="Page">
     <g class="com.sun.star.drawing.CustomShape">
      <g id="id3">
       <path fill="rgb(125,166,71)" stroke="none" d="M 4428,10975 L 8153,11288 8609,3063 6746,2906 4428,10975 Z M 4428,10975 L 4428,10975 Z M 9541,3141 L 9541,3141 Z"/>
       <path fill="none" stroke="rgb(125,166,71)" d="M 4428,10975 L 8153,11288 8609,3063 6746,2906 4428,10975 Z"/>
       <path fill="none" stroke="rgb(125,166,71)" d="M 4428,10975 L 4428,10975 Z"/>
       <path fill="none" stroke="rgb(125,166,71)" d="M 9541,3141 L 9541,3141 Z"/>
      </g>
     </g>
     <g class="com.sun.star.drawing.CustomShape">
      <g id="id4">
       <path fill="rgb(0,69,134)" stroke="none" d="M 2943,5265 L 7342,5646 6316,11148 4116,10957 2943,5265 Z M 2943,5265 L 2943,5265 Z M 7416,11243 L 7416,11243 Z"/>
       <path fill="none" stroke="rgb(0,69,134)" d="M 2943,5265 L 7342,5646 6316,11148 4116,10957 2943,5265 Z"/>
       <path fill="none" stroke="rgb(0,69,134)" d="M 2943,5265 L 2943,5265 Z"/>
       <path fill="none" stroke="rgb(0,69,134)" d="M 7416,11243 L 7416,11243 Z"/>
      </g>
     </g>
     <g class="Group">
      <g class="com.sun.star.drawing.CustomShape">
       <g id="id5">
        <path fill="rgb(0,0,0)" stroke="none" d="M 3753,10991 L 12243,11860 10380,12394 3753,10991 Z M 3519,11058 L 3519,11058 Z M 12243,11860 L 12243,11860 Z"/>
        <path fill="none" stroke="rgb(0,0,0)" d="M 3753,10991 L 12243,11860 10380,12394 3753,10991 Z"/>
        <path fill="none" stroke="rgb(0,0,0)" d="M 3519,11058 L 3519,11058 Z"/>
        <path fill="none" stroke="rgb(0,0,0)" d="M 12243,11860 L 12243,11860 Z"/>
       </g>
      </g>
      <g class="com.sun.star.drawing.CustomShape">
       <g id="id6">
        <path fill="rgb(0,0,0)" stroke="none" d="M 3786,11044 L 9708,12621 8612,12797 3786,11044 Z M 3354,11113 L 3354,11113 Z M 9708,12621 L 9708,12621 Z"/>
        <path fill="none" stroke="rgb(0,0,0)" d="M 3786,11044 L 9708,12621 8612,12797 3786,11044 Z"/>
        <path fill="none" stroke="rgb(0,0,0)" d="M 3354,11113 L 3354,11113 Z"/>
        <path fill="none" stroke="rgb(0,0,0)" d="M 9708,12621 L 9708,12621 Z"/>
       </g>
      </g>
     </g>
     <g class="com.sun.star.drawing.CustomShape">
      <g id="id7">
       <path fill="rgb(255,102,51)" stroke="none" d="M 10996,7510 L 7088,7137 7376,11221 10227,11493 10996,7510 Z M 10996,7510 L 10996,7510 Z M 6847,11170 L 6847,11170 Z"/>
       <path fill="none" stroke="rgb(255,102,51)" d="M 10996,7510 L 7088,7137 7376,11221 10227,11493 10996,7510 Z"/>
       <path fill="none" stroke="rgb(255,102,51)" d="M 10996,7510 L 10996,7510 Z"/>
       <path fill="none" stroke="rgb(255,102,51)" d="M 6847,11170 L 6847,11170 Z"/>
      </g>
     </g>
     <g class="com.sun.star.drawing.CustomShape">
      <g id="id8">
       <path fill="rgb(255,255,255)" stroke="none" d="M 4367,6960 L 3859,6960 3859,6071 4875,6071 4875,6960 4367,6960 Z"/>
       <path fill="none" stroke="rgb(52,101,164)" d="M 4367,6960 L 3859,6960 3859,6071 4875,6071 4875,6960 4367,6960 Z"/>
      </g>
     </g>
     <g class="com.sun.star.drawing.CustomShape">
      <g id="id9">
       <path fill="rgb(255,255,255)" stroke="none" d="M 5764,7850 L 5383,7850 5383,7088 6145,7088 6145,7850 5764,7850 Z"/>
       <path fill="none" stroke="rgb(52,101,164)" d="M 5764,7850 L 5383,7850 5383,7088 6145,7088 6145,7850 5764,7850 Z"/>
      </g>
     </g>
     <g class="com.sun.star.drawing.CustomShape">
      <g id="id10">
       <path fill="rgb(255,255,255)" stroke="none" d="M 8493,8493 L 8112,8493 8112,7731 8874,7731 8874,8493 8493,8493 Z"/>
       <path fill="none" stroke="rgb(255,255,255)" d="M 8493,8493 L 8112,8493 8112,7731 8874,7731 8874,8493 8493,8493 Z"/>
      </g>
     </g>
     <g class="com.sun.star.drawing.CustomShape">
      <g id="id11">
       <path fill="rgb(255,255,255)" stroke="none" d="M 9953,9127 L 9635,9127 9635,8492 10270,8492 10270,9127 9953,9127 Z"/>
       <path fill="none" stroke="rgb(255,255,255)" d="M 9953,9127 L 9635,9127 9635,8492 10270,8492 10270,9127 9953,9127 Z"/>
      </g>
     </g>
     <g class="com.sun.star.drawing.CustomShape">
      <g id="id12">
       <path fill="rgb(255,255,255)" stroke="none" d="M 9001,9636 L 8747,9636 8747,9136 9255,9136 9255,9636 9001,9636 Z"/>
       <path fill="none" stroke="rgb(255,255,255)" d="M 9001,9636 L 8747,9636 8747,9136 9255,9136 9255,9636 9001,9636 Z"/>
      </g>
     </g>
     <g class="com.sun.star.drawing.CustomShape">
      <g id="id13">
       <path fill="rgb(255,255,255)" stroke="none" d="M 6961,4393 L 6707,4393 6707,3666 7215,3666 7215,4393 6961,4393 Z"/>
       <path fill="none" stroke="rgb(255,255,255)" d="M 6961,4393 L 6707,4393 6707,3666 7215,3666 7215,4393 6961,4393 Z"/>
      </g>
     </g>
     <g class="com.sun.star.drawing.CustomShape">
      <g id="id14">
       <path fill="rgb(255,255,255)" stroke="none" d="M 7896,3975 L 7642,3975 7642,3467 8150,3467 8150,3975 7896,3975 Z"/>
       <path fill="none" stroke="rgb(255,255,255)" d="M 7896,3975 L 7642,3975 7642,3467 8150,3467 8150,3975 7896,3975 Z"/>
      </g>
     </g>
     <g class="com.sun.star.drawing.CustomShape">
      <g id="id15">
       <path fill="rgb(255,255,255)" stroke="none" d="M 7923,5190 L 7669,5190 7669,4547 8177,4547 8177,5190 7923,5190 Z"/>
       <path fill="none" stroke="rgb(255,255,255)" d="M 7923,5190 L 7669,5190 7669,4547 8177,4547 8177,5190 7923,5190 Z"/>
      </g>
     </g>
     <g class="com.sun.star.drawing.LineShape">
      <g id="id16">
       <path fill="none" stroke="rgb(125,166,71)" stroke-width="203" stroke-linejoin="round" d="M 7626,3024 L 7626,1754"/>
      </g>
     </g>
     <g class="com.sun.star.drawing.CustomShape">
      <g id="id17">
       <path fill="rgb(255,255,255)" stroke="none" d="M 6969,5318 L 6715,5318 6715,4810 7223,4810 7223,5318 6969,5318 Z"/>
       <path fill="none" stroke="rgb(255,255,255)" d="M 6969,5318 L 6715,5318 6715,4810 7223,4810 7223,5318 6969,5318 Z"/>
      </g>
     </g>
     <g class="com.sun.star.drawing.CustomShape">
      <g id="id18">
       <path fill="rgb(255,255,255)" stroke="none" d="M 7858,6334 L 7604,6334 7604,5826 8112,5826 8112,6334 7858,6334 Z"/>
       <path fill="none" stroke="rgb(255,255,255)" d="M 7858,6334 L 7604,6334 7604,5826 8112,5826 8112,6334 7858,6334 Z"/>
      </g>
     </g>
    </g>
   </g>
  </g>
 </g>
</svg>